<svg width="32" height="32" viewBox="0 0 32 32" xmlns="http://www.w3.org/2000/svg">
  <defs>
    <linearGradient id="faviconGradient" x1="0%" y1="0%" x2="100%" y2="100%">
      <stop offset="0%" style="stop-color:#00E676;stop-opacity:1" />
      <stop offset="100%" style="stop-color:#03A9F4;stop-opacity:1" />
    </linearGradient>
  </defs>
  
  <!-- Square bracket outline -->
  <g fill="none" stroke="url(#faviconGradient)" stroke-width="2" stroke-linecap="round">
    <!-- Top bracket -->
    <line x1="4" y1="4" x2="12" y2="4"/>
    <line x1="4" y1="4" x2="4" y2="8"/>
    
    <!-- Right bracket -->
    <line x1="28" y1="4" x2="20" y2="4"/>
    <line x1="28" y1="4" x2="28" y2="8"/>
    
    <!-- Bottom bracket -->
    <line x1="28" y1="28" x2="20" y2="28"/>
    <line x1="28" y1="28" x2="28" y2="24"/>
    
    <!-- Left bracket -->
    <line x1="4" y1="28" x2="12" y2="28"/>
    <line x1="4" y1="28" x2="4" y2="24"/>
  </g>
  
  <!-- Letter R -->
  <g fill="url(#faviconGradient)">
    <path d="M10 8 L10 24 L12 24 L12 18 L16 24 L19 24 L15 19 L18 8 L16 8 L14 15 L12 15 L12 8 Z"/>
    <path d="M12 10 L14 10 L14 13 L12 13 Z"/>
  </g>
</svg>
