<svg width="32" height="32" viewBox="0 0 32 32" xmlns="http://www.w3.org/2000/svg">
  <defs>
    <linearGradient id="faviconGradient" x1="0%" y1="0%" x2="100%" y2="0%">
      <stop offset="0%" style="stop-color:#00E676;stop-opacity:1" />
      <stop offset="100%" style="stop-color:#03A9F4;stop-opacity:1" />
    </linearGradient>
  </defs>
  
  <!-- Square bracket outline for R -->
  <g fill="none" stroke="url(#faviconGradient)" stroke-width="1.5" stroke-linecap="round">
    <!-- Top bracket -->
    <line x1="2" y1="6" x2="8" y2="6"/>
    <line x1="2" y1="6" x2="2" y2="10"/>
    
    <!-- Right bracket -->
    <line x1="14" y1="6" x2="8" y2="6"/>
    <line x1="14" y1="6" x2="14" y2="10"/>
    
    <!-- Bottom bracket -->
    <line x1="14" y1="26" x2="8" y2="26"/>
    <line x1="14" y1="26" x2="14" y2="22"/>
    
    <!-- Left bracket -->
    <line x1="2" y1="26" x2="8" y2="26"/>
    <line x1="2" y1="26" x2="2" y2="22"/>
  </g>
  
  <!-- Letter R with gradient -->
  <g fill="url(#faviconGradient)">
    <path d="M6 8 L6 24 L8 24 L8 18 L12 24 L14 24 L10 20 L14 8 L12 8 L10 14 L8 14 L8 8 Z"/>
    <path d="M8 10 L10 10 L10 12 L8 12 Z"/>
  </g>
  
  <!-- Letter D with solid green -->
  <g fill="#00E676">
    <path d="M17 8 L17 24 L23 24 Q24 24 24 23 L24 9 Q24 8 23 8 L17 8 Z M19 10 L23 10 Q23.5 10 23.5 10.5 L23.5 21.5 Q23.5 22 23 22 L19 22 Z"/>
  </g>
  
  <!-- Letter M with solid green -->
  <g fill="#00E676">
    <path d="M26 8 L26 24 L28 24 L28 16 L30 20 L32 16 L32 24 L34 24 L34 8 L32 8 L30 14 L28 8 Z"/>
  </g>
</svg>