<svg width="120" height="120" viewBox="0 0 120 120" xmlns="http://www.w3.org/2000/svg">
  <defs>
    <linearGradient id="beeGradient" x1="0%" y1="0%" x2="100%" y2="100%">
      <stop offset="0%" style="stop-color:#FFEB3B;stop-opacity:1" />
      <stop offset="50%" style="stop-color:#FFC107;stop-opacity:1" />
      <stop offset="100%" style="stop-color:#FF9800;stop-opacity:1" />
    </linearGradient>
    <linearGradient id="wingGradient" x1="0%" y1="0%" x2="100%" y2="100%">
      <stop offset="0%" style="stop-color:#81D4FA;stop-opacity:0.8" />
      <stop offset="100%" style="stop-color:#29B6F6;stop-opacity:0.6" />
    </linearGradient>
  </defs>
  
  <!-- Bee body (main yellow part) -->
  <ellipse cx="60" cy="65" rx="25" ry="35" fill="url(#beeGradient)" stroke="#333" stroke-width="2"/>
  
  <!-- Black stripes on bee body -->
  <ellipse cx="60" cy="50" rx="20" ry="3" fill="#333"/>
  <ellipse cx="60" cy="60" rx="20" ry="3" fill="#333"/>
  <ellipse cx="60" cy="70" rx="20" ry="3" fill="#333"/>
  <ellipse cx="60" cy="80" rx="20" ry="3" fill="#333"/>
  
  <!-- Bee head -->
  <circle cx="60" cy="35" r="18" fill="url(#beeGradient)" stroke="#333" stroke-width="2"/>
  
  <!-- Bee eyes -->
  <ellipse cx="55" cy="32" rx="3" ry="4" fill="#333"/>
  <ellipse cx="65" cy="32" rx="3" ry="4" fill="#333"/>
  
  <!-- Bee antennae -->
  <line x1="50" y1="25" x2="45" y2="20" stroke="#333" stroke-width="3" stroke-linecap="round"/>
  <line x1="70" y1="25" x2="75" y2="20" stroke="#333" stroke-width="3" stroke-linecap="round"/>
  <circle cx="45" cy="20" r="2" fill="#333"/>
  <circle cx="75" cy="20" r="2" fill="#333"/>
  
  <!-- Left wing (back) -->
  <ellipse cx="40" cy="45" rx="15" ry="25" fill="url(#wingGradient)" stroke="#29B6F6" stroke-width="1" opacity="0.7"/>
  
  <!-- Right wing (front) -->
  <ellipse cx="80" cy="45" rx="15" ry="25" fill="url(#wingGradient)" stroke="#29B6F6" stroke-width="1" opacity="0.8"/>
  
  <!-- Wing details -->
  <path d="M35 35 Q40 45 35 55" stroke="#29B6F6" stroke-width="1" fill="none" opacity="0.5"/>
  <path d="M85 35 Q80 45 85 55" stroke="#29B6F6" stroke-width="1" fill="none" opacity="0.5"/>
  
  <!-- Bee smile -->
  <path d="M52 40 Q60 45 68 40" stroke="#333" stroke-width="2" fill="none" stroke-linecap="round"/>
</svg>