<svg width="64" height="64" viewBox="0 0 64 64" xmlns="http://www.w3.org/2000/svg">
  <defs>
    <linearGradient id="gradient" x1="0%" y1="0%" x2="100%" y2="100%">
      <stop offset="0%" style="stop-color:#00E676;stop-opacity:1" />
      <stop offset="100%" style="stop-color:#03A9F4;stop-opacity:1" />
    </linearGradient>
  </defs>
  
  <!-- Square bracket outline -->
  <g fill="none" stroke="url(#gradient)" stroke-width="3" stroke-linecap="round">
    <!-- Top bracket -->
    <line x1="8" y1="8" x2="24" y2="8"/>
    <line x1="8" y1="8" x2="8" y2="16"/>
    
    <!-- Right bracket -->
    <line x1="56" y1="8" x2="40" y2="8"/>
    <line x1="56" y1="8" x2="56" y2="16"/>
    
    <!-- Bottom bracket -->
    <line x1="56" y1="56" x2="40" y2="56"/>
    <line x1="56" y1="56" x2="56" y2="48"/>
    
    <!-- Left bracket -->
    <line x1="8" y1="56" x2="24" y2="56"/>
    <line x1="8" y1="56" x2="8" y2="48"/>
  </g>
  
  <!-- Letter R -->
  <g fill="url(#gradient)">
    <path d="M20 16 L20 48 L24 48 L24 36 L32 48 L38 48 L30 34 L36 16 L32 16 L28 30 L24 30 L24 16 Z"/>
    <path d="M24 20 L28 20 L28 26 L24 26 Z"/>
  </g>
</svg>
