<svg width="120" height="48" viewBox="0 0 120 48" xmlns="http://www.w3.org/2000/svg">
  <defs>
    <linearGradient id="gradient" x1="0%" y1="0%" x2="100%" y2="0%">
      <stop offset="0%" style="stop-color:#00E676;stop-opacity:1" />
      <stop offset="100%" style="stop-color:#03A9F4;stop-opacity:1" />
    </linearGradient>
  </defs>
  
  <!-- Square bracket outline for R -->
  <g fill="none" stroke="url(#gradient)" stroke-width="2" stroke-linecap="round">
    <!-- Top bracket -->
    <line x1="3" y1="9" x2="15" y2="9"/>
    <line x1="3" y1="9" x2="3" y2="15"/>
    
    <!-- Right bracket -->
    <line x1="27" y1="9" x2="15" y2="9"/>
    <line x1="27" y1="9" x2="27" y2="15"/>
    
    <!-- Bottom bracket -->
    <line x1="27" y1="39" x2="15" y2="39"/>
    <line x1="27" y1="39" x2="27" y2="33"/>
    
    <!-- Left bracket -->
    <line x1="3" y1="39" x2="15" y2="39"/>
    <line x1="3" y1="39" x2="3" y2="33"/>
  </g>
  
  <!-- Letter R with gradient -->
  <g fill="url(#gradient)">
    <path d="M9 12 L9 36 L12 36 L12 27 L18 36 L21 36 L15 30 L21 12 L18 12 L15 21 L12 21 L12 12 Z"/>
    <path d="M12 15 L15 15 L15 18 L12 18 Z"/>
  </g>
  
  <!-- Letter D with solid green -->
  <g fill="#00E676">
    <path d="M33 12 L33 36 L45 36 Q48 36 48 33 L48 15 Q48 12 45 12 L33 12 Z M36 15 L45 15 Q46 15 46 16 L46 32 Q46 33 45 33 L36 33 Z"/>
  </g>
  
  <!-- Letter M with solid green -->
  <g fill="#00E676">
    <path d="M54 12 L54 36 L57 36 L57 21 L63 30 L69 21 L69 36 L72 36 L72 12 L69 12 L63 24 L57 12 Z"/>
  </g>
</svg>